<svg xmlns="http://www.w3.org/2000/svg" viewBox="0 0 64 64">
  <defs>
    <clipPath id="disc"><circle cx="32" cy="32" r="30"/></clipPath>
    <filter id="grain" x="0" y="0" width="100%" height="100%">
      <feTurbulence type="fractalNoise" baseFrequency="0.9" numOctaves="2" stitchTiles="stitch" result="n"/>
      <feColorMatrix in="n" type="saturate" values="0"/>
    </filter>
  </defs>
  <circle cx="32" cy="32" r="30" fill="#f6efe1"/>
  <g clip-path="url(#disc)">
    <circle cx="32" cy="37" r="12.5" fill="#bb6038"/>
    <path d="M-2,35.5 C 8,30.5 18,32.5 30,33.5 C 44,34.7 54,30 66,32.5 L66,66 L-2,66 Z" fill="#2c3a59"/>
    <path d="M-2,45 C 10,40 22,43 34,45 C 46,47 55,43 66,46" fill="none" stroke="#f6efe1" stroke-width="1.7"/>
    <path d="M-2,46.4 C 10,41.4 22,44.4 34,46.4 C 46,48.4 55,44.4 66,47.4 L66,66 L-2,66 Z" fill="#20293f"/>
    <rect x="0" y="0" width="64" height="64" filter="url(#grain)" opacity="0.07"/>
  </g>
  <circle cx="32" cy="32" r="30" fill="none" stroke="#26324e" stroke-width="1.6"/>
</svg>
