<svg xmlns="http://www.w3.org/2000/svg" width="512" height="512" viewBox="0 0 64 64">
  <defs>
    <clipPath id="disc"><circle cx="32" cy="32" r="26"/></clipPath>
    <filter id="grain" x="0" y="0" width="100%" height="100%">
      <feTurbulence type="fractalNoise" baseFrequency="0.9" numOctaves="2" stitchTiles="stitch" result="n"/>
      <feColorMatrix in="n" type="saturate" values="0"/>
    </filter>
  </defs>
  <rect width="64" height="64" fill="#f6efe1"/>
  <circle cx="32" cy="32" r="26" fill="#f6efe1"/>
  <g clip-path="url(#disc)">
    <circle cx="32" cy="36.5" r="11" fill="#bb6038"/>
    <path d="M2,35.5 C 10,31 18,32.8 30,33.7 C 42,34.6 50,30.6 62,32.8 L62,62 L2,62 Z" fill="#2c3a59"/>
    <path d="M2,44 C 12,39.5 22,42 34,44 C 44,45.6 52,42 62,44.6" fill="none" stroke="#f6efe1" stroke-width="1.5"/>
    <path d="M2,45.4 C 12,40.9 22,43.4 34,45.4 C 44,47 52,43.4 62,46 L62,62 L2,62 Z" fill="#20293f"/>
    <rect x="0" y="0" width="64" height="64" filter="url(#grain)" opacity="0.06"/>
  </g>
  <circle cx="32" cy="32" r="26" fill="none" stroke="#26324e" stroke-width="1.5"/>
</svg>
